<?xml version="1.0" standalone="no"?>
<!DOCTYPE svg PUBLIC "-//W3C//DTD SVG 20010904//EN"
 "http://www.w3.org/TR/2001/REC-SVG-20010904/DTD/svg10.dtd">
<svg version="1.0" xmlns="http://www.w3.org/2000/svg"
 width="500.000000pt" height="500.000000pt" viewBox="0 0 500.000000 500.000000"
 preserveAspectRatio="xMidYMid meet">
<metadata>
Created by potrace 1.14, written by Peter Selinger 2001-2017
</metadata>
<g transform="translate(0.000000,500.000000) scale(0.100000,-0.100000)"
fill="#000000" stroke="none">
<path d="M2322 4739 c-176 -24 -377 -92 -531 -181 -298 -171 -532 -457 -640
-783 -55 -166 -66 -242 -65 -445 0 -206 17 -312 75 -477 95 -268 233 -448 459
-598 193 -129 359 -186 620 -215 313 -34 651 63 921 267 308 232 504 592 526
968 7 114 14 135 48 135 37 0 48 -30 40 -118 -28 -331 -133 -593 -333 -832
-335 -398 -836 -577 -1362 -485 -45 8 63 -25 135 -41 95 -21 384 -30 483 -15
462 72 831 330 1059 741 47 85 100 225 130 346 26 101 28 124 28 309 0 156 -4
219 -18 284 -42 195 -109 357 -215 516 -207 315 -528 530 -902 606 -112 23
-351 32 -458 18z m295 -710 c28 -15 60 -42 78 -68 l30 -43 3 -179 3 -179 158
0 c214 0 265 -20 317 -126 23 -48 26 -63 22 -124 -6 -80 -32 -129 -94 -177
-37 -28 -38 -28 -218 -33 l-181 -5 -5 -175 c-6 -193 -11 -214 -72 -265 -48
-41 -90 -55 -160 -55 -79 0 -154 39 -195 102 -28 41 -28 45 -31 220 l-4 178
-172 0 -172 0 -46 29 c-118 75 -142 244 -50 352 60 69 92 79 280 79 l162 0 0
163 c0 136 3 168 19 202 56 121 204 167 328 104z m1088 -169 c43 -45 42 -101
-3 -141 -46 -42 -93 -40 -138 5 -67 67 -24 165 72 166 32 0 46 -6 69 -30z"/>
<path d="M1850 1420 l0 -210 118 0 c136 0 183 11 212 47 30 38 27 106 -5 138
-13 14 -29 25 -35 25 -7 0 0 14 14 31 35 41 36 100 2 134 -33 33 -86 45 -203
45 l-103 0 0 -210z m233 149 c29 -16 37 -28 37 -61 0 -44 -32 -58 -132 -58
l-88 0 0 58 c0 32 3 62 7 65 11 12 153 8 176 -4z m37 -194 c15 -14 20 -29 18
-54 -4 -49 -32 -61 -145 -61 l-93 0 0 63 c0 35 3 67 8 71 4 5 48 6 99 4 73 -3
96 -8 113 -23z"/>
<path d="M2333 1614 c-3 -8 -4 -77 -1 -153 5 -154 16 -187 78 -228 47 -33 153
-33 200 0 65 43 75 74 79 245 l3 152 -31 0 -31 0 0 -135 c0 -150 -10 -192 -54
-220 -19 -13 -40 -16 -77 -13 -91 9 -108 48 -109 246 l0 122 -25 0 c-14 0 -28
-7 -32 -16z"/>
<path d="M2931 1604 c-73 -37 -104 -86 -109 -173 -4 -83 23 -142 86 -186 38
-26 54 -30 120 -33 65 -3 84 0 122 20 l45 23 3 83 3 82 -31 0 -30 0 0 -69 c0
-68 0 -69 -31 -80 -117 -41 -229 31 -229 145 0 66 27 113 80 141 55 29 105 29
163 -1 44 -22 48 -22 62 -6 14 15 13 18 -3 33 -58 53 -168 62 -251 21z"/>
<path d="M940 785 c0 -24 2 -25 70 -25 l70 0 0 -185 0 -185 30 0 30 0 2 183 3
182 73 3 c69 3 73 4 70 25 -3 22 -6 22 -175 25 l-173 2 0 -25z"/>
<path d="M1390 600 l0 -210 30 0 30 0 0 65 0 65 65 0 64 0 41 -61 c44 -64 56
-73 90 -67 19 3 18 8 -24 67 l-46 65 35 28 c65 54 69 152 8 210 -38 35 -90 48
-200 48 l-93 0 0 -210z m239 132 c53 -39 48 -120 -9 -149 -14 -7 -58 -13 -97
-13 l-73 0 0 96 0 97 77 -6 c53 -4 84 -12 102 -25z"/>
<path d="M1962 743 c-17 -37 -60 -132 -96 -210 l-65 -143 32 0 c29 0 34 6 54
50 l22 50 113 0 114 0 19 -50 c18 -46 22 -50 52 -50 l32 0 -19 43 c-147 331
-169 372 -198 375 -26 3 -31 -2 -60 -65z m139 -180 c8 -23 8 -23 -81 -23 -103
0 -99 -14 -35 125 l36 80 35 -80 c20 -44 40 -90 45 -102z"/>
<path d="M2435 791 c-158 -71 -167 -298 -16 -378 76 -40 210 -27 252 23 10 12
9 18 -3 30 -14 14 -19 13 -54 -5 -80 -43 -187 -14 -225 61 -39 76 -17 159 54
212 42 31 134 29 177 -2 30 -23 32 -23 51 -6 15 14 17 20 6 32 -40 49 -168 67
-242 33z"/>
<path d="M2810 600 l0 -210 30 0 c30 0 30 1 30 53 0 49 3 56 40 92 l40 39 34
-40 c19 -21 54 -62 78 -91 35 -43 49 -52 76 -53 17 0 32 2 32 5 0 3 -41 55
-91 116 l-92 110 89 92 c88 90 89 92 60 95 -25 3 -44 -11 -148 -115 l-118
-118 0 118 0 117 -30 0 -30 0 0 -210z"/>
<path d="M3280 600 l0 -210 155 0 155 0 0 25 0 25 -125 0 -125 0 0 70 0 70
105 0 105 0 0 25 0 25 -105 0 -106 0 3 63 3 62 118 3 117 3 0 24 0 25 -150 0
-150 0 0 -210z"/>
<path d="M3720 600 l0 -210 30 0 30 0 0 65 0 65 65 0 64 0 41 -61 c44 -64 56
-73 90 -67 19 3 18 8 -24 67 l-46 65 35 28 c65 54 69 152 8 210 -38 35 -90 48
-200 48 l-93 0 0 -210z m239 132 c53 -39 48 -120 -9 -149 -14 -7 -58 -13 -97
-13 l-73 0 0 96 0 97 77 -6 c53 -4 84 -12 102 -25z"/>
</g>
</svg>
